<?xml version="1.0" standalone="no"?>
<!DOCTYPE svg PUBLIC "-//W3C//DTD SVG 20010904//EN"
 "http://www.w3.org/TR/2001/REC-SVG-20010904/DTD/svg10.dtd">
<svg version="1.0" xmlns="http://www.w3.org/2000/svg"
 width="1280.000000pt" height="1280.000000pt" viewBox="0 0 1280.000000 1280.000000"
 preserveAspectRatio="xMidYMid meet">
<metadata>
Created by potrace 1.11, written by Peter Selinger 2001-2013
</metadata>
<g transform="translate(0.000000,1280.000000) scale(0.100000,-0.100000)"
fill="#000000" stroke="none">
<path d="M8919 12711 c-14 -5 -62 -33 -105 -64 -94 -65 -200 -120 -275 -141
-30 -8 -115 -25 -189 -36 -790 -125 -1417 -380 -1881 -766 l-75 -63 -85 76
c-171 154 -382 316 -576 444 -89 58 -112 69 -148 69 -27 0 -51 -7 -68 -20 -62
-49 -431 -638 -561 -897 -20 -40 -40 -73 -45 -73 -4 0 -47 18 -95 40 -125 58
-296 115 -480 160 -351 85 -677 107 -1111 75 -241 -18 -372 -35 -610 -81 -221
-42 -300 -43 -450 -8 -60 15 -125 29 -143 31 -82 13 -152 -31 -173 -109 -13
-49 9 -125 106 -373 376 -958 948 -1645 1542 -1853 43 -15 78 -32 78 -37 0 -6
-56 -45 -125 -88 -348 -219 -716 -519 -897 -732 -444 -522 -732 -1378 -794
-2360 -29 -471 26 -830 207 -1340 281 -790 884 -1776 1409 -2300 110 -111 490
-453 760 -686 937 -806 1675 -1232 2485 -1434 233 -58 364 -76 596 -82 209 -6
211 -6 292 21 172 58 500 240 743 412 386 275 780 678 1115 1139 320 442 596
902 1056 1765 218 408 447 1177 552 1855 118 759 112 1393 -20 1882 -33 122
-146 423 -228 608 -207 461 -486 902 -773 1220 -352 389 -653 579 -1216 767
-167 56 -509 148 -549 148 -31 0 -21 13 50 65 429 317 716 936 816 1760 40
334 48 874 13 941 -27 53 -93 81 -148 65z m-94 -553 c-26 -707 -177 -1278
-442 -1678 -86 -128 -170 -221 -277 -304 -101 -79 -140 -103 -267 -167 l-102
-51 -126 11 c-69 7 -212 15 -318 18 l-192 6 -49 138 -50 137 14 59 c19 79 19
261 -1 351 -39 189 -138 397 -274 579 l-24 32 47 98 c26 54 80 154 120 223
l72 125 150 77 c156 81 382 175 544 226 157 50 526 138 675 162 242 38 320 57
407 99 46 21 87 40 92 40 4 1 5 -80 1 -181z m-3017 -359 c223 -165 473 -391
607 -549 248 -293 357 -523 357 -752 0 -132 -36 -239 -144 -430 -60 -105 -62
-107 -102 -113 -334 -43 -455 -60 -586 -85 -228 -44 -254 -49 -376 -76 -61
-13 -119 -24 -128 -24 -40 0 -172 217 -231 380 -96 269 -99 455 -11 724 43
128 122 319 191 455 101 202 301 541 318 541 5 0 52 -32 105 -71z m-1783 -609
c77 -11 181 -30 230 -42 108 -25 349 -107 451 -153 l74 -34 -21 -53 c-138
-346 -186 -554 -176 -767 9 -192 51 -288 192 -439 54 -58 65 -76 54 -83 -19
-12 -236 -11 -339 1 -352 44 -661 158 -946 348 -348 233 -641 566 -849 965
-42 80 -78 136 -98 151 -17 14 -29 27 -27 29 20 16 368 69 605 92 224 21 666
14 850 -15z m5077 -2390 c163 -61 396 -251 567 -463 257 -318 412 -680 372
-869 -43 -201 -228 -252 -459 -128 -440 238 -914 952 -853 1285 13 68 30 101
74 143 66 64 181 76 299 32z"/>
</g>
</svg>
