<svg xmlns="http://www.w3.org/2000/svg" xmlns:xlink="http://www.w3.org/1999/xlink" xml:space="preserve" width="6.72in" height="6.72in" style="shape-rendering:geometricPrecision; text-rendering:geometricPrecision; image-rendering:optimizeQuality; fill-rule:evenodd; clip-rule:evenodd" viewBox="0 0 6720 6720">
 <defs>
  <style type="text/css">
   <![CDATA[
    .fil1 {fill:none}
    .fil0 {fill:black;fill-rule:nonzero}
   ]]>
  </style>
 </defs>
 <g id="Layer_x0020_1">
  <metadata id="CorelCorpID_0Corel-Layer"/>
  <g id="_375181480">
   <path class="fil0" d="M2274 5668c-1778,-1447 -924,-3114 -922,-3119l72 35 -72 -36c14,-29 43,-45 73,-44l1464 0 1465 0c33,0 62,21 74,50 50,101 801,1715 -930,3119l-50 -62 50 62c-15,12 -33,18 -50,18l0 0 -559 0 -559 0c-22,0 -41,-9 -56,-23zm-799 -3004c-114,262 -609,1639 884,2867l531 0 531 0c1493,-1228 997,-2604 884,-2867l-1414 0 -1414 0z"/>
   <path class="fil0" d="M4504 2734c-44,5 -75,45 -70,89 5,44 45,75 89,70 3,0 949,-123 889,612 -61,744 -907,575 -909,574 -43,-8 -85,20 -93,64 -8,43 20,85 64,93 3,1 1023,205 1098,-719 76,-932 -1064,-784 -1068,-783z"/>
   <path class="fil0" d="M2112 1457c-19,-40 -67,-56 -106,-38 -40,19 -56,67 -38,106 21,44 41,81 61,118 86,159 161,298 -5,458 -32,31 -33,81 -2,113 31,32 81,33 113,2 254,-245 152,-433 35,-649 -20,-38 -41,-76 -58,-111z"/>
   <path class="fil0" d="M2943 938c32,-30 34,-81 3,-113 -30,-32 -81,-34 -113,-3 -39,37 -87,90 -125,149 -31,48 -56,101 -68,154l0 0c-1,4 -1,8 -2,13 -4,46 0,95 10,145 10,48 27,98 51,147l72 -35 -72 35c4,8 9,15 16,22 36,43 76,83 115,123 37,38 75,76 105,112 16,34 28,68 34,101 7,34 9,67 7,98 -7,30 -24,64 -45,95 -30,47 -69,90 -100,119 -32,30 -34,81 -3,113 30,32 81,34 113,3 39,-37 87,-90 125,-149 30,-46 54,-97 66,-148 2,-5 3,-11 3,-16l-80 -7 80 7c4,-47 1,-97 -10,-148 -10,-46 -26,-94 -49,-141 -3,-8 -7,-15 -13,-22l0 0c-38,-45 -79,-87 -120,-129 -37,-38 -75,-76 -105,-112 -16,-34 -28,-68 -34,-101 -7,-34 -9,-67 -7,-98 7,-30 24,-64 45,-95 30,-47 69,-90 100,-119z"/>
   <path class="fil0" d="M3684 1275c-19,-40 -66,-57 -106,-38 -40,19 -57,66 -38,106 22,47 45,91 67,133 82,158 153,293 102,475 -7,25 -18,52 -30,78 -16,34 -34,65 -48,87 -24,37 -13,87 24,110 37,24 87,13 110,-24 17,-27 39,-64 58,-105 16,-33 30,-68 39,-103 68,-242 -16,-404 -115,-592 -21,-41 -43,-83 -64,-127z"/>
   <path class="fil0" d="M1572 5760c-44,0 -80,36 -80,80 0,44 36,80 80,80l2633 0c44,0 80,-36 80,-80 0,-44 -36,-80 -80,-80l-2633 0z"/>
  </g>
 </g>
 <rect class="fil1" width="6720" height="6720"/>
</svg>