<svg xmlns:vectornator="http://vectornator.io" xmlns:xlink="http://www.w3.org/1999/xlink" xmlns="http://www.w3.org/2000/svg" style="fill-rule:evenodd;clip-rule:evenodd;stroke-linecap:round;stroke-linejoin:round;" xml:space="preserve" version="1.1" viewBox="0 0 1024 768">




<g id="Layer 3" vectornator:layerName="Layer 3">
<path stroke="#000000" stroke-width="6.45" d="M560.217+276.796C560.217+276.796+561.438+252.31+565.552+243.051C570.955+230.891+584.377+217.399+607.212+210.57C630.047+203.741+628.172+208.778+639.831+200.337C639.831+200.337+642.796+235.769+626.874+257.057C610.953+278.346+569.036+276.03+560.217+276.796Z" fill="#0fcd09" stroke-linecap="round" opacity="1" stroke-linejoin="round"/>
<path stroke="#000000" stroke-width="7.52" d="M566.875+275.945C566.875+275.945+557.108+253.773+550.017+246.616C540.704+237.216+523.461+229.284+499.811+230.659C476.16+232.035+479.68+236.05+465.858+232.184C465.858+232.184+475.59+265.858+497.906+280.141C520.222+294.424+558.401+278.202+566.875+275.945Z" fill="#0fcd09" stroke-linecap="round" opacity="1" stroke-linejoin="round"/>
<path stroke="#000000" stroke-width="6.22" d="M564.545+287.894C564.545+287.894+581.956+273.98+587.658+258.216C593.361+242.453+573.421+223.644+555.697+212.297C555.697+212.297+525.372+254.716+535.877+268.097C546.382+281.479+564.545+287.894+564.545+287.894Z" fill="#0fcd09" stroke-linecap="round" opacity="1" stroke-linejoin="round"/>
</g>
<g id="Layer 3 copy" vectornator:layerName="Layer 3 copy" visibility="hidden">
<path stroke="#000000" stroke-width="6.45" d="M389.627+270.861C389.627+270.861+396.316+244.274+402.453+235.13C410.513+223.12+426.791+211.646+450.874+209.833C474.957+208.019+471.977+213.084+485.382+206.717C485.382+206.717+480.375+246.368+459.882+265.783C439.39+285.198+398.508+272.216+389.627+270.861Z" fill="#07b202" stroke-linecap="round" opacity="1" stroke-linejoin="round"/>
<path stroke="#000000" stroke-width="6.22" d="M391.415+284.128C391.415+284.128+411.728+273.182+420.89+257.29C430.053+241.398+414.571+215.776+399.607+198.9C399.607+198.9+360.156+237.934+367.535+255.246C374.913+272.558+391.415+284.128+391.415+284.128Z" fill="#07b202" stroke-linecap="round" opacity="1" stroke-linejoin="round"/>
</g>
<g id="Layer 4" vectornator:layerName="Layer 4">
<path d="M470.338+236.411L470.307+236.506C470.372+236.67+475.968+248.993+482.605+259.218C485.147+263.134+487.994+266.542+490.517+269.137C494.269+272.997+496.735+275.546+502.561+278.596C510.134+282.561+522.529+284.755+531.368+283.731L537.937+281.297L539.195+274.677C497.469+277.598+481.885+238.579+481.885+238.579L479.795+237.048C477.476+237.312+474.908+237.287+470.338+236.411Z" opacity="1" fill="#1f8d1c"/>
</g>
<g id="Layer 1" vectornator:layerName="Layer 1">
<path stroke="#000000" stroke-width="0.1" d="M574.193+271.185C597.293+267.773+621.38+269.051+644.986+279.791C663.772+288.339+678.954+314.286+685.69+335.123C694.093+361.114+682.948+408.573+673.153+426.817C656.832+457.216+640.581+486.506+612.783+502.301C609.414+504.216+606.006+506.031+602.484+507.185L602.475+507.182C598.462+507.332+594.392+507.201+590.277+506.502C558.212+501.057+533.115+478.917+507.603+455.751C492.293+441.848+466.414+400.789+466.37+373.354C466.335+351.358+472.908+321.649+488.494+307.159C508.079+288.951+531.125+279.523+554.697+274.866C557.888+274.235+560.907+273.451+564.111+272.996L564.573+272.92C567.862+272.247+570.858+271.678+574.193+271.185Z" fill="#ff5b45" stroke-linecap="round" opacity="1" stroke-linejoin="round"/>
<path stroke="#000000" stroke-width="10.45" d="M572.81+272.29C595.911+268.878+619.997+270.156+643.603+280.896C662.389+289.444+677.571+315.391+684.308+336.228C692.71+362.219+681.565+409.678+671.77+427.922C655.449+458.321+639.198+487.61+611.4+503.406C608.031+505.32+604.623+507.136+601.101+508.29L601.093+508.287C597.079+508.437+593.009+508.306+588.894+507.607C556.83+502.162+531.732+480.022+506.221+456.856C490.91+442.952+465.031+401.894+464.987+374.458C464.952+352.463+471.525+322.754+487.111+308.263C506.696+290.056+529.743+280.628+553.314+275.971C556.505+275.34+559.524+274.556+562.728+274.101L563.19+274.025C566.479+273.352+569.475+272.783+572.81+272.29Z" fill="#ff2925" stroke-linecap="round" opacity="1" stroke-linejoin="round"/>
<path stroke="#000000" stroke-width="0.1" d="M585.326+471.004C584.055+465.399+586.113+456.584+591.681+455.321C597.249+454.059+603.057+462.483+604.328+468.089C605.599+473.694+603.44+482.067+597.872+483.33C592.304+484.592+586.597+476.61+585.326+471.004Z" fill="#000000" stroke-linecap="round" opacity="1" stroke-linejoin="round"/>
<path stroke="#000000" stroke-width="0.1" d="M617.037+414.372C615.766+408.766+617.825+399.951+623.392+398.689C628.96+397.426+634.768+405.851+636.039+411.456C637.31+417.061+635.151+425.435+629.583+426.697C624.016+427.96+618.308+419.977+617.037+414.372Z" fill="#000000" stroke-linecap="round" opacity="1" stroke-linejoin="round"/>
<path stroke="#000000" stroke-width="0.1" d="M638.045+352.156C636.774+346.551+638.832+337.736+644.4+336.474C649.968+335.211+655.776+343.635+657.047+349.241C658.318+354.846+656.159+363.219+650.591+364.482C645.024+365.744+639.316+357.762+638.045+352.156Z" fill="#000000" stroke-linecap="round" opacity="1" stroke-linejoin="round"/>
<path stroke="#000000" stroke-width="0.1" d="M498.716+384.35C497.445+378.745+499.503+369.93+505.071+368.667C510.639+367.405+516.447+375.829+517.718+381.434C518.989+387.04+516.83+395.413+511.262+396.675C505.695+397.938+499.987+389.955+498.716+384.35Z" fill="#000000" stroke-linecap="round" opacity="1" stroke-linejoin="round"/>
<path stroke="#000000" stroke-width="0.1" d="M537.994+434.468C536.723+428.862+538.781+420.047+544.349+418.785C549.917+417.522+555.725+425.947+556.996+431.552C558.267+437.157+556.108+445.53+550.54+446.793C544.973+448.055+539.265+440.073+537.994+434.468Z" fill="#000000" stroke-linecap="round" opacity="1" stroke-linejoin="round"/>
<path stroke="#000000" stroke-width="0.1" d="M564.806+368.937C563.535+363.332+565.593+354.517+571.161+353.254C576.729+351.992+582.537+360.416+583.808+366.021C585.079+371.627+582.92+380+577.352+381.263C571.785+382.525+566.077+374.542+564.806+368.937Z" fill="#000000" stroke-linecap="round" opacity="1" stroke-linejoin="round"/>
<path stroke="#000000" stroke-width="0.1" d="M515.147+332.411C513.876+326.806+515.934+317.991+521.502+316.728C527.07+315.466+532.878+323.89+534.149+329.495C535.42+335.101+533.261+343.474+527.693+344.737C522.125+345.999+516.418+338.016+515.147+332.411Z" fill="#000000" stroke-linecap="round" opacity="1" stroke-linejoin="round"/>
<path stroke="#000000" stroke-width="0.1" d="M597.21+307.222C595.939+301.617+597.998+292.802+603.565+291.54C609.133+290.277+614.941+298.702+616.212+304.307C617.483+309.912+615.324+318.285+609.757+319.548C604.189+320.81+598.481+312.828+597.21+307.222Z" fill="#000000" stroke-linecap="round" opacity="1" stroke-linejoin="round"/>
<path stroke="#000000" stroke-width="0.1" d="M551.532+327.845C551.477+327.603+551.643+327.359+551.903+327.3C552.163+327.241+552.419+327.389+552.474+327.632C552.529+327.874+552.362+328.118+552.102+328.177C551.842+328.236+551.587+328.088+551.532+327.845Z" fill="#000000" stroke-linecap="round" opacity="1" stroke-linejoin="round"/>
</g>
<g id="Layer 5" vectornator:layerName="Layer 5">
<path d="M600.065+503.66C600.065+503.66+595.897+504.005+588.729+502.705C587.098+502.409+584.534+501.905+582.603+501.366C581.402+501.03+580.598+500.861+579.484+500.515C579.042+500.378+577.969+500.009+577.618+499.912C575.578+499.348+570.108+497.39+564.081+494.342C557.699+491.115+550.999+486.809+546.903+484.058C536.33+476.957+523.609+465.59+512.72+455.935C501.217+445.736+494.082+434.548+489.137+426.415C483.481+417.112+480.331+410.402+478.614+406.37C475.272+398.524+472.348+391.01+470.729+380.083C468.164+362.776+473.938+344.474+475.484+338.682C478.672+326.747+488.979+306.614+512.712+296.09C512.712+296.09+522.616+461.01+600.065+503.66Z" opacity="0.246696" fill="#000000"/>
<path d="M544.45+272.532C544.45+272.532+538.55+267.632+537.258+264.127C536.392+261.777+536.143+257.34+539.522+248.031C539.945+246.865+540.494+245.638+541.035+244.314C543.413+238.486+547.044+231.702+550.268+226.304C553.629+220.679+556.536+216.558+556.536+216.558L558.548+217.943C558.548+217.943+542.045+242.787+544.325+254.645C546.606+266.503+551.695+270.913+551.695+270.913L544.45+272.532Z" opacity="1" fill="#1b7e18"/>
<path d="M593.702+265.393L587.718+265.576C587.718+265.576+590.688+259.535+590.993+258.011" opacity="1" fill="#1f961c"/>
<path d="M589.922+221.581C589.922+221.581+583.522+232.258+584.051+233.16L580.337+228.627L581.962+227.253L584.605+225.174L587.102+223.412L589.922+221.581Z" opacity="1" fill="#1e851b"/>
</g>
<g id="Layer 6" vectornator:layerName="Layer 6">

<path stroke="#ffffff" stroke-width="5" d="M643.961+317.369C637.153+308.219+634.625+299.189+638.313+297.199C642+295.209+650.508+301.013+657.316+310.163C664.123+319.313+666.652+328.343+662.964+330.333C659.276+332.323+650.768+326.519+643.961+317.369Z" fill="#ffffff" stroke-linecap="round" opacity="0.612335" stroke-linejoin="round" vectornator:blendMode="Lighten"/>
</g>
</svg>